<svg xmlns="http://www.w3.org/2000/svg" viewBox="0 0 1833 400">
    <path fill="white" d="
        M 81.00,0.46
        C 100.08,-2.18 115.59,11.31 131.00,20.60
          131.00,20.60 220.00,75.20 220.00,75.20
          220.00,75.20 245.00,90.60 245.00,90.60
          247.51,92.12 253.49,96.23 256.00,96.62
          259.68,97.19 264.94,93.24 268.00,91.32
          268.00,91.32 295.00,74.68 295.00,74.68
          295.00,74.68 399.00,10.95 399.00,10.95
          403.46,8.16 409.18,4.37 414.00,2.46
          426.81,-2.59 442.06,0.27 451.82,10.17
          461.01,19.49 461.91,32.88 464.65,45.00
          464.65,45.00 481.21,122.00 481.21,122.00
          481.21,122.00 504.00,228.00 504.00,228.00
          506.77,241.36 513.85,269.86 514.00,282.00
          514.55,329.40 491.71,369.46 448.00,389.77
          434.57,396.00 417.83,399.98 403.00,400.00
          403.00,400.00 110.00,400.00 110.00,400.00
          95.47,399.93 76.99,395.20 64.00,388.75
          54.04,383.80 45.23,378.54 37.00,370.91
          15.25,350.75 0.35,321.01 0.00,291.00
          -0.28,267.02 7.38,239.66 12.58,216.00
          12.58,216.00 33.20,120.00 33.20,120.00
          33.20,120.00 49.58,44.00 49.58,44.00
          53.22,27.40 53.81,12.63 71.00,3.82
          74.44,2.05 77.27,1.29 81.00,0.46 Z
        M 144.00,178.16
        C 128.57,181.79 119.19,193.19 119.00,209.00
          119.00,209.00 119.00,267.00 119.00,267.00
          119.10,287.11 132.28,298.97 152.00,299.00
          152.00,299.00 208.00,299.00 208.00,299.00
          227.84,298.97 239.97,286.81 240.00,267.00
          240.00,267.00 240.00,220.00 240.00,220.00
          240.00,209.11 241.32,200.63 234.90,191.00
          228.40,181.26 219.19,178.02 208.00,178.16
          208.00,178.16 144.00,178.16 144.00,178.16 Z
        M 299.00,178.16
        C 283.94,181.25 274.18,192.62 274.00,208.00
          274.00,208.00 274.00,268.00 274.00,268.00
          274.09,287.30 287.05,298.97 306.00,299.00
          306.00,299.00 364.00,299.00 364.00,299.00
          381.96,298.79 394.79,285.96 395.00,268.00
          395.00,268.00 395.00,210.00 395.00,210.00
          394.98,205.43 394.76,202.39 393.24,198.00
          389.76,187.91 380.52,180.08 370.00,178.16
          370.00,178.16 352.00,178.16 352.00,178.16
          352.00,178.16 328.00,178.16 328.00,178.16
          328.00,178.16 299.00,178.16 299.00,178.16 Z
    "/>
    <path fill="white" d="
        M 689.59,316.00
        C 689.59,316.00 689.59,39.50 689.59,39.50
          689.59,39.50 893.53,39.50 893.53,39.50
          915.89,39.50 933.92,43.37 947.61,51.11
          961.30,58.84 968.14,74.91 968.14,99.33
          968.14,99.33 968.14,159.20 968.14,159.20
          968.14,177.96 963.03,191.87 952.81,200.91
          942.60,209.94 927.76,215.15 908.28,216.55
          908.28,216.55 899.39,216.55 899.39,216.55
          899.39,216.55 992.92,316.00 992.92,316.00
          992.92,316.00 891.59,316.00 891.59,316.00
          891.59,316.00 805.39,222.16 805.39,222.16
          805.39,222.16 771.05,222.16 771.05,222.16
          771.05,222.16 771.05,316.00 771.05,316.00
          771.05,316.00 689.59,316.00 689.59,316.00 Z
        M 771.05,157.22
        C 771.05,157.22 870.31,157.22 870.31,157.22
          876.02,157.22 880.33,156.02 883.25,153.61
          886.18,151.20 887.64,147.09 887.64,141.28
          887.64,141.28 887.64,122.28 887.64,122.28
          887.64,116.96 886.18,112.98 883.25,110.33
          880.33,107.67 876.02,106.34 870.31,106.34
          870.31,106.34 771.05,106.34 771.05,106.34
          771.05,106.34 771.05,157.22 771.05,157.22 Z
        M 1031.94,316.00
        C 1031.94,316.00 1031.94,116.22 1031.94,116.22
          1031.94,116.22 1107.19,116.22 1107.19,116.22
          1107.19,116.22 1107.19,316.00 1107.19,316.00
          1107.19,316.00 1031.94,316.00 1031.94,316.00 Z
        M 1029.80,72.89
        C 1029.80,72.89 1029.80,51.94 1029.80,51.94
          1029.80,42.44 1030.66,36.85 1032.41,35.17
          1034.16,33.48 1039.84,32.64 1049.47,32.64
          1049.47,32.64 1089.67,32.64 1089.67,32.64
          1099.29,32.64 1104.97,33.48 1106.72,35.17
          1108.47,36.85 1109.34,42.44 1109.34,51.94
          1109.34,51.94 1109.34,72.89 1109.34,72.89
          1109.34,82.51 1108.47,88.19 1106.72,89.94
          1104.97,91.69 1099.29,92.56 1089.67,92.56
          1089.67,92.56 1049.47,92.56 1049.47,92.56
          1039.84,92.56 1034.16,91.69 1032.41,89.94
          1030.66,88.19 1029.80,82.51 1029.80,72.89 Z
        M 1241.75,253.94
        C 1241.75,253.94 1332.17,253.94 1332.17,253.94
          1332.17,253.94 1332.17,174.47 1332.17,174.47
          1332.17,174.47 1241.75,174.47 1241.75,174.47
          1241.75,174.47 1241.75,253.94 1241.75,253.94 Z
        M 1181.44,400.53
        C 1181.44,400.53 1169.88,344.30 1169.88,344.30
          1169.88,344.30 1332.17,344.30 1332.17,344.30
          1332.17,344.30 1332.17,291.30 1332.17,291.30
          1328.70,298.73 1322.80,304.25 1314.45,307.84
          1306.12,311.43 1295.14,313.22 1281.53,313.22
          1281.53,313.22 1221.81,313.22 1221.81,313.22
          1202.11,313.22 1187.97,309.57 1179.38,302.27
          1170.79,294.95 1166.50,282.93 1166.50,266.19
          1166.50,266.19 1166.50,160.23 1166.50,160.23
          1166.50,144.50 1170.84,133.05 1179.53,125.91
          1188.23,118.76 1202.32,115.19 1221.81,115.19
          1221.81,115.19 1281.53,115.19 1281.53,115.19
          1295.14,115.19 1306.10,116.98 1314.41,120.58
          1322.72,124.16 1328.64,129.67 1332.17,137.11
          1332.17,137.11 1332.17,116.22 1332.17,116.22
          1332.17,116.22 1407.42,116.22 1407.42,116.22
          1407.42,116.22 1407.42,343.33 1407.42,343.33
          1407.42,354.34 1406.41,363.52 1404.39,370.86
          1402.37,378.20 1399.11,384.08 1394.61,388.48
          1390.12,392.89 1384.27,396.00 1377.08,397.81
          1369.88,399.62 1361.03,400.53 1350.53,400.53
          1350.53,400.53 1181.44,400.53 1181.44,400.53 Z
        M 1462.50,261.86
        C 1462.50,261.86 1462.50,165.30 1462.50,165.30
          1462.50,148.04 1467.65,135.21 1477.95,126.83
          1488.27,118.43 1504.95,114.23 1528.00,114.23
          1528.00,114.23 1631.34,114.23 1631.34,114.23
          1654.46,114.23 1671.50,118.45 1682.48,126.89
          1693.47,135.32 1698.97,148.26 1698.97,165.72
          1698.97,165.72 1698.97,236.41 1698.97,236.41
          1698.97,236.41 1537.75,236.41 1537.75,236.41
          1537.75,236.41 1537.75,268.36 1537.75,268.36
          1537.75,268.36 1623.72,268.36 1623.72,268.36
          1623.72,268.36 1623.72,249.88 1623.72,249.88
          1623.72,249.88 1698.97,262.75 1698.97,262.75
          1698.97,262.75 1698.97,265.11 1698.97,265.11
          1698.97,284.23 1693.29,297.83 1681.92,305.89
          1670.57,313.95 1652.14,317.97 1626.64,317.97
          1626.64,317.97 1530.88,317.97 1530.88,317.97
          1506.80,317.97 1489.38,313.62 1478.62,304.94
          1467.88,296.25 1462.50,281.89 1462.50,261.86 Z
        M 1537.75,194.22
        C 1537.75,194.22 1623.72,194.22 1623.72,194.22
          1623.72,194.22 1623.72,163.86 1623.72,163.86
          1623.72,163.86 1537.75,163.86 1537.75,163.86
          1537.75,163.86 1537.75,194.22 1537.75,194.22 Z
        M 1756.80,316.00
        C 1756.80,316.00 1756.80,27.73 1756.80,27.73
          1756.80,27.73 1832.05,27.73 1832.05,27.73
          1832.05,27.73 1832.05,316.00 1832.05,316.00
          1832.05,316.00 1756.80,316.00 1756.80,316.00 Z
    "/>
</svg>